HIERARCHY
ROOT SpineBase
{
  OFFSET 0.000000 0.000000 0.000000
  CHANNELS 6 Xposition Yposition Zposition Zrotation Xrotation Yrotation
  JOINT SpineMid
  {
    OFFSET 0.000000 27.257500 0.000000
    CHANNELS 3 Zrotation Xrotation Yrotation
    JOINT SpineShoulder
    {
      OFFSET 0.370523 20.231741 -0.515449
      CHANNELS 3 Zrotation Xrotation Yrotation
      JOINT Neck
      {
        OFFSET 0.238666 6.693195 -0.432196
        CHANNELS 3 Zrotation Xrotation Yrotation
        JOINT Head
        {
          OFFSET 2.364445 12.938333 0.229797
          CHANNELS 3 Zrotation Xrotation Yrotation
          End Site
          {
            OFFSET 0 0 0
          }
        }
      }
      JOINT ShoulderLeft
      {
        OFFSET -13.091154 -1.882124 -8.022405
        CHANNELS 3 Zrotation Xrotation Yrotation
        JOINT ElbowLeft
        {
          OFFSET -12.656753 -19.846815 1.946729
          CHANNELS 3 Zrotation Xrotation Yrotation
          JOINT WristLeft
          {
            OFFSET 0.241638 -20.310047 1.865041
            CHANNELS 3 Zrotation Xrotation Yrotation
            JOINT HandLeft
            {
              OFFSET -1.082963 -5.087628 1.449114
              CHANNELS 3 Zrotation Xrotation Yrotation
              JOINT HandTipLeft
              {
                OFFSET -0.030049 -4.894627 0.649910
                CHANNELS 3 Zrotation Xrotation Yrotation
                End Site
                {
                  OFFSET 0 0 0
                }
              }
              JOINT ThumbLeft
              {
                OFFSET 3.133384 1.032298 -0.936910
                CHANNELS 3 Zrotation Xrotation Yrotation
                End Site
                {
                  OFFSET 0 0 0
                }
              }
            }
          }
        }
      }
      JOINT ShoulderRight
      {
        OFFSET 13.508387 -1.877756 9.764679
        CHANNELS 3 Zrotation Xrotation Yrotation
        JOINT ElbowRight
        {
          OFFSET 0.319111 -19.869575 16.378910
          CHANNELS 3 Zrotation Xrotation Yrotation
          JOINT WristRight
          {
            OFFSET 0.676487 -13.650253 -23.767030
            CHANNELS 3 Zrotation Xrotation Yrotation
            JOINT HandRight
            {
              OFFSET -2.195772 -0.716874 -4.510868
              CHANNELS 3 Zrotation Xrotation Yrotation
              JOINT HandTipRight
              {
                OFFSET 1.567550 -3.282093 -2.929153
                CHANNELS 3 Zrotation Xrotation Yrotation
                End Site
                {
                  OFFSET 0 0 0
                }
              }
              JOINT ThumbRight
              {
                OFFSET -3.080552 0.839963 -3.711957
                CHANNELS 3 Zrotation Xrotation Yrotation
                End Site
                {
                  OFFSET 0 0 0
                }
              }
            }
          }
        }
      }
    }
  }
  JOINT HipLeft
  {
    OFFSET -4.617281 1.233617 -6.401734
    CHANNELS 3 Zrotation Xrotation Yrotation
    JOINT KneeLeft
    {
      OFFSET -4.869147 -31.706075 0.336032
      CHANNELS 3 Zrotation Xrotation Yrotation
      JOINT AnkleLeft
      {
        OFFSET -8.212036 -32.305609 6.400330
        CHANNELS 3 Zrotation Xrotation Yrotation
        JOINT FootLeft
        {
          OFFSET 5.333117 -3.142962 -9.732459
          CHANNELS 3 Zrotation Xrotation Yrotation
          End Site
          {
            OFFSET 0 0 0
          }
        }
      }
    }
  }
  JOINT HipRight
  {
    OFFSET 6.593399 0.223981 0.292351
    CHANNELS 3 Zrotation Xrotation Yrotation
    JOINT KneeRight
    {
      OFFSET -5.000141 -31.417008 5.237731
      CHANNELS 3 Zrotation Xrotation Yrotation
      JOINT AnkleRight
      {
        OFFSET -7.210960 -32.771615 8.022016
        CHANNELS 3 Zrotation Xrotation Yrotation
        JOINT FootRight
        {
          OFFSET 4.255582 -3.500085 -9.120912
          CHANNELS 3 Zrotation Xrotation Yrotation
          End Site
          {
            OFFSET 0 0 0
          }
        }
      }
    }
  }
}
MOTION
Frames: 13
Frame Time: 0.033333
-106.537279 67.991089 324.924207 -0.000000 0.000000 -30.842135 0.000000 0.000000 30.842135 -0.000000 0.000000 0.000000 -0.000000 0.000000 0.000000 0.000000 0.000000 0.000000 -0.000000 0.000000 0.000000 -0.000000 0.000000 0.000000 -0.000000 0.000000 0.000000 -0.000000 0.000000 0.000000 0.000000 0.000000 0.000000 0.000000 0.000000 0.000000 -0.000000 0.000000 0.000000 -0.000000 0.000000 0.000000 -0.000000 0.000000 0.000000 -0.000000 0.000000 0.000000 0.000000 0.000000 0.000000 0.000000 0.000000 0.000000 0.000000 0.000000 30.842135 -0.000000 0.000000 0.000000 -0.000000 0.000000 0.000000 0.000000 0.000000 0.000000 0.000000 0.000000 30.842135 -0.000000 0.000000 0.000000 -0.000000 0.000000 0.000000 0.000000 0.000000 0.000000
-106.609788 68.024196 324.856686 -0.269806 0.209365 -30.165880 0.338475 -0.045431 30.166507 -0.000000 0.000000 0.000000 -0.000000 0.000000 0.000000 0.000000 0.000000 0.000000 -2.164331 1.451836 -1.098905 7.598713 3.734536 1.611537 4.364925 -1.555837 1.891853 -3.497620 -4.282843 -1.110963 0.000000 0.000000 0.000000 0.000000 0.000000 0.000000 1.323334 3.037293 1.129035 -1.551366 -17.264979 -2.446439 10.226755 -7.147544 -0.737432 -22.960231 3.354454 10.189864 0.000000 0.000000 0.000000 0.000000 0.000000 0.000000 0.338475 -0.045431 30.166507 -0.000000 0.000000 0.000000 -0.000000 0.000000 0.000000 0.000000 0.000000 0.000000 0.338475 -0.045431 30.166507 -0.000000 0.000000 0.000000 1.962097 2.328415 -2.162232 0.000000 0.000000 0.000000
-106.646272 68.037897 324.848177 -0.482705 0.347098 -29.638496 0.591197 -0.062965 29.640283 -0.000000 0.000000 0.000000 1.355678 0.595835 -0.140307 0.000000 0.000000 0.000000 -3.916004 3.001471 -2.154475 13.679618 6.718628 3.069093 8.664555 -1.891286 4.000061 -8.466019 -7.747311 -2.299486 0.000000 0.000000 0.000000 0.000000 0.000000 0.000000 2.349698 5.921250 1.995022 -4.157742 -36.669238 -5.422517 17.792112 -8.404849 -3.045650 -38.512562 3.150625 23.198073 0.000000 0.000000 0.000000 0.000000 0.000000 0.000000 0.591197 -0.062965 29.640283 -0.000000 0.000000 0.000000 -0.000000 0.000000 0.000000 0.000000 0.000000 0.000000 0.591197 -0.062965 29.640283 -0.000000 0.000000 0.000000 3.200794 3.709659 -3.517321 0.000000 0.000000 0.000000
-106.646731 68.032192 324.898678 -0.638429 0.413073 -29.260454 -0.060284 -0.035302 29.236892 0.708461 -0.411425 0.028129 1.854863 0.934963 -0.219566 0.000000 0.000000 0.000000 -5.153562 4.596985 -3.153127 18.195202 8.882550 4.458786 12.240553 -1.343566 5.778010 -13.292763 -10.369646 -3.468093 0.000000 0.000000 0.000000 0.000000 0.000000 0.000000 3.113446 8.675662 2.633574 -8.518785 -53.994082 -9.662135 22.223056 -6.629455 -6.416785 -46.951552 2.106292 33.255681 0.000000 0.000000 0.000000 0.000000 0.000000 0.000000 0.758869 -0.048297 29.263075 -0.000000 0.000000 0.000000 -0.000000 0.000000 0.000000 0.000000 0.000000 0.000000 0.758869 -0.048297 29.263075 -0.000000 0.000000 0.000000 3.835726 4.394018 -4.207342 0.000000 0.000000 0.000000
-106.611164 68.007081 325.008191 -0.736898 0.407395 -29.032364 -0.059496 -0.030585 29.006767 0.067114 -0.058554 -0.032241 2.972695 0.955074 -0.228283 0.000000 0.000000 0.000000 -5.059671 5.825128 -4.061703 21.184284 10.220653 5.812578 14.824610 -0.269827 6.920973 -17.166347 -12.211033 -4.461229 0.000000 0.000000 0.000000 0.000000 0.000000 0.000000 4.359168 10.984644 3.157029 -15.094067 -66.071601 -15.792837 25.009881 -6.045916 -8.893076 -51.762490 2.262350 39.876242 0.000000 0.000000 0.000000 0.000000 0.000000 0.000000 0.842008 0.001438 29.034973 -0.000000 0.000000 0.000000 -0.000000 0.000000 0.000000 0.000000 0.000000 0.000000 0.842008 0.001438 29.034973 -0.000000 0.000000 0.000000 3.928559 4.496541 -4.303763 0.000000 0.000000 0.000000
-106.539573 67.962563 325.176716 -0.778208 0.330385 -28.955061 -0.048438 -0.018039 28.929883 0.068526 -0.040133 -0.032492 3.263279 1.405425 -0.319050 0.000000 0.000000 0.000000 -5.021376 7.387415 -4.927709 22.727201 10.743317 7.114151 16.431764 1.101866 7.332537 -19.789193 -13.368883 -5.171399 0.000000 0.000000 0.000000 0.000000 0.000000 0.000000 4.682299 13.626450 3.409933 -22.610888 -72.641888 -22.724031 27.238124 -8.201704 -9.410998 -55.230890 4.135915 43.923239 0.000000 0.000000 0.000000 0.000000 0.000000 0.000000 0.840874 0.087679 28.956662 -0.000000 0.000000 0.000000 -0.000000 0.000000 0.000000 0.000000 0.000000 0.000000 0.840874 0.087679 28.956662 -0.000000 0.000000 0.000000 3.489358 4.034619 -3.817778 0.000000 0.000000 0.000000
-106.415542 67.897342 325.435665 -0.734532 0.135291 -28.848475 0.708654 0.235907 28.847883 -0.000000 0.000000 0.000000 2.646483 2.337214 -0.530228 0.000000 0.000000 0.000000 -6.869587 9.555242 -6.020734 26.853529 8.934489 9.328933 18.827244 3.798969 7.731135 -23.569217 -13.121176 -6.659229 0.000000 0.000000 0.000000 0.000000 0.000000 0.000000 3.698556 16.797093 3.157230 -21.524103 -72.545964 -21.576360 28.295906 -15.094021 -8.860539 -57.056050 7.616983 46.567200 0.000000 0.000000 0.000000 0.000000 0.000000 0.000000 0.708654 0.235907 28.847883 -0.000000 0.000000 0.000000 -0.000000 0.000000 0.000000 0.000000 0.000000 0.000000 0.708654 0.235907 28.847883 -0.000000 0.000000 0.000000 1.716292 2.217681 -1.693000 0.000000 0.000000 0.000000
-106.242651 67.810539 325.758251 -0.622534 -0.130898 -28.952516 0.481376 0.415888 28.950058 -0.000000 0.000000 0.000000 2.677587 2.892812 -0.646416 0.000000 0.000000 0.000000 -5.916509 10.759230 -6.737086 26.483068 7.296017 10.576908 20.842342 7.034603 6.704278 -25.262802 -13.399709 -7.289939 0.000000 0.000000 0.000000 0.000000 0.000000 0.000000 3.308313 19.799628 2.884657 -14.179801 -65.697385 -13.938499 31.283507 -25.990585 -2.784920 -58.937754 14.122414 45.480751 0.000000 0.000000 0.000000 0.000000 0.000000 0.000000 0.481376 0.415888 28.950058 0.131491 0.853017 -0.192107 -0.128644 -0.853451 0.190170 0.000000 0.000000 0.000000 0.481376 0.415888 28.950058 -0.000000 0.000000 0.000000 -0.000000 0.000000 0.000000 0.000000 0.000000 0.000000
-106.076180 67.705828 326.102582 -0.516021 -0.402240 -29.301664 0.253158 0.603311 29.298519 -0.000000 0.000000 0.000000 2.623837 3.321778 -0.732599 0.000000 0.000000 0.000000 -2.384453 11.129237 -7.085929 21.242161 6.328616 10.386112 18.551679 7.716906 4.875887 -21.789531 -12.915122 -5.979410 0.000000 0.000000 0.000000 0.000000 0.000000 0.000000 3.034800 22.340450 2.704965 -12.653398 -63.885026 -11.733168 37.429515 -32.769939 6.315812 -63.730088 26.216197 43.429789 0.000000 0.000000 0.000000 0.000000 0.000000 0.000000 -0.455920 1.079154 29.187882 0.406355 0.589223 -0.216017 -0.014250 -1.350427 0.339497 0.000000 0.000000 0.000000 -0.685226 0.780702 29.090224 0.733797 -0.611117 0.223543 -0.747371 -0.922213 0.844697 0.000000 0.000000 0.000000
-105.985205 67.606153 326.384179 -0.489560 -0.597350 -29.986398 0.125500 0.762062 29.983011 -0.000000 0.000000 0.000000 2.368271 3.566926 -0.770350 0.000000 0.000000 0.000000 2.924056 10.951337 -7.173807 12.030064 5.588128 9.063705 15.942388 9.302357 2.124609 -18.532346 -12.174716 -4.480559 0.000000 0.000000 0.000000 0.000000 0.000000 0.000000 2.985010 24.206814 2.689439 -11.963441 -61.584535 -10.015114 49.050950 -38.014879 23.449885 -70.896944 38.673791 41.322640 0.000000 0.000000 0.000000 0.000000 0.000000 0.000000 0.125500 0.762062 29.983011 -0.032735 1.843704 -0.476146 0.048078 -1.843368 0.477447 0.000000 0.000000 0.000000 -1.012776 1.112316 29.727608 0.814866 -0.868357 0.280197 -1.280445 -1.972618 0.973024 0.000000 0.000000 0.000000
-105.846688 67.491510 326.693072 -0.349193 -0.835404 -31.098000 0.138976 0.123000 31.104514 0.166788 0.801828 -0.011605 1.926909 3.716351 -0.778069 0.000000 0.000000 0.000000 8.216707 10.538285 -7.070587 3.162126 5.756474 7.427742 11.805329 8.645396 0.144090 -14.970821 -10.288573 -2.772707 0.000000 0.000000 0.000000 0.000000 0.000000 0.000000 3.080330 25.812479 2.778720 -12.427149 -60.792151 -9.490948 57.130859 -37.215154 37.590068 -74.038235 50.664877 35.210313 0.000000 0.000000 0.000000 0.000000 0.000000 0.000000 -1.080523 1.095243 31.004105 0.710608 1.571049 -0.455224 0.238731 -2.698845 -0.906631 0.000000 0.000000 0.000000 -1.568774 1.433128 30.775514 0.597433 -0.486153 0.110458 -0.938768 -3.240719 0.567834 0.000000 0.000000 0.000000
-105.725230 67.384286 326.957053 -0.194615 -1.002398 -32.403903 0.149928 0.099546 32.418415 0.036205 0.173753 0.012529 1.248466 4.657921 -0.815853 0.000000 0.000000 0.000000 12.986984 10.627399 -6.877756 -4.947924 6.716097 5.645645 10.188847 7.165842 -0.518735 -15.593109 -7.125863 -2.915927 0.000000 0.000000 0.000000 0.000000 0.000000 0.000000 3.283568 27.617767 2.837401 -13.486440 -60.987444 -9.665129 64.482299 -36.309700 48.756021 -80.707922 61.367749 35.946734 0.000000 0.000000 0.000000 0.000000 0.000000 0.000000 -1.665320 0.950588 32.308952 1.203440 1.765279 -0.480603 0.305191 -3.140843 -1.778731 0.000000 0.000000 0.000000 -2.093366 1.643729 32.023928 0.714314 -0.712687 0.162492 -0.455367 -3.309187 -0.694027 0.000000 0.000000 0.000000
-105.580586 67.283829 327.239425 -0.007079 -1.180646 -33.543951 0.136771 0.064389 33.567907 -0.002833 0.199611 0.018893 0.467596 4.828244 -0.784763 0.000000 0.000000 0.000000 16.707501 9.843597 -6.277455 -11.393117 8.426655 4.016978 11.495058 4.711654 0.458226 -17.669240 -3.040361 -3.809061 0.000000 0.000000 0.000000 0.000000 0.000000 0.000000 3.496204 28.305096 3.038572 -14.570834 -61.000712 -10.425965 63.712098 -32.956997 51.687235 -79.403462 65.160863 33.625895 0.000000 0.000000 0.000000 0.000000 0.000000 0.000000 -2.660146 0.779924 33.417545 2.178157 1.597919 -0.393757 0.198911 -3.434695 -2.716178 0.000000 0.000000 0.000000 -2.713588 1.819111 33.097077 0.930722 -0.948765 0.238176 0.441190 -2.840825 -2.453571 0.000000 0.000000 0.000000
